HIERARCHY
ROOT hip
{
  OFFSET 0.0 0.0 0.0
  CHANNELS 6 Xposition Yposition Zposition Zrotation Yrotation Xrotation
  JOINT torso
  {
    OFFSET 0.0 0.0 0.0
    CHANNELS 3 Zrotation Xrotation Yrotation
    JOINT neck
    {
      OFFSET -31.42098999999993 328.8025209999999 74.3554680000002
      CHANNELS 3 Zrotation Xrotation Yrotation
      JOINT head
      {
        OFFSET 3.3519900000001144 303.81732099999994 206.53942900000015
        CHANNELS 3 Zrotation Xrotation Yrotation
        End Site
        {
          OFFSET 0.0 0.0 0.0
        }
      }
    }
    JOINT left_collar
    {
      OFFSET -31.42098999999993 328.8025209999999 74.3554680000002
      CHANNELS 3 Zrotation Xrotation Yrotation
      JOINT left_upper_arm
      {
        OFFSET -124.490479 -8.162841999999841 8.226441000000023
        CHANNELS 3 Zrotation Xrotation Yrotation
        JOINT left_forearm
        {
          OFFSET -253.595764 -1.5758060000000569 105.0729980000001
          CHANNELS 3 Zrotation Xrotation Yrotation
          JOINT left_hand
          {
            OFFSET -269.48803699999996 0.1478270000000066 -55.346191999999974
            CHANNELS 3 Zrotation Xrotation Yrotation
            End Site
            {
              OFFSET 0.0 0.0 0.0
            }
          }
        }
      }
    }
    JOINT right_collar
    {
      OFFSET -31.42098999999993 328.8025209999999 74.3554680000002
      CHANNELS 3 Zrotation Xrotation Yrotation
      JOINT right_upper_arm
      {
        OFFSET 162.02484099999998 0.46441600000002836 2.2303470000001653
        CHANNELS 3 Zrotation Xrotation Yrotation
        JOINT right_forearm
        {
          OFFSET 240.01246700000004 -25.835875999999985 121.34179699999959
          CHANNELS 3 Zrotation Xrotation Yrotation
          JOINT right_hand
          {
            OFFSET 252.48539699999992 18.910399999999868 -67.53466800000001
            CHANNELS 3 Zrotation Xrotation Yrotation
            End Site
            {
              OFFSET 0.0 0.0 0.0
            }
          }
        }
      }
    }
  }
}
MOTION
Frames: 6
Frame Time: 0.01
-222.08042580156362 265.807466055515 1446.947923413183 3.8156679397891717 -3.596300201834851 1.3448694461353214 -0.4039911318708152 3.976971595520712 0.4609938469725378 -3.4598514460274545 -6.586337358713496 2.5262574150810155 0.0 0.0 0.0 -0.12394621432581265 0.18771478763409552 -3.032248535180417 51.734877992854784 8.421307023674308 27.472110437897488 42.08225253378618 -5.150968145344284 -9.884026092844465 0.0 0.0 0.0 -1.5081052684635525 0.055597529530730536 3.3808178262587836 -47.770230812604844 8.795935439597345 -28.674755350881206 -55.474240542682814 -9.732714076820471 12.566684859906635 0.0 0.0 0.0
-222.05165068403522 265.82875570043734 1446.7842082914415 3.683197157349314 -3.4900187718683777 1.1731234065723934 -0.3219090939916322 3.8919450960996516 0.4371635234018969 -3.518900122768175 -6.628165800353003 2.5692742129027075 0.0 0.0 0.0 -0.08046658730998477 0.17536656594663919 -2.780661489611003 51.7252630780457 8.42322886609462 27.46461008657819 42.0956344130791 -5.1578956894488455 -9.870809315845733 0.0 0.0 0.0 -1.3868695341260695 0.0528570483696173 3.651887763265427 -47.81035129081537 8.747125678100831 -28.77900810915715 -55.511182297055 -9.737571078970214 12.57062849850441 0.0 0.0 0.0
-222.02179458438894 265.84694312236576 1446.6223240600698 3.556203352280142 -3.389144291333127 1.008688403792589 -0.2431173098379376 3.8105435249462007 0.4141983709863943 -3.575425738624072 -6.668813543198429 2.6104893746470226 0.0 0.0 0.0 -0.03877744500267381 0.16331015163749835 -2.5388012340039756 51.71597335324466 8.425229440975281 27.457073571021233 42.10816046029644 -5.164578495347087 -9.857936737144321 0.0 0.0 0.0 -1.2674721258261306 0.049564831612066006 3.9149377115564663 -47.851727130830255 8.698605442968635 -28.883245223860108 -55.54690689341181 -9.742052834315626 12.57492204085631 0.0 0.0 0.0
-221.9899263252831 265.86090312577545 1446.4627645099754 3.4370182616243494 -3.2956537844404146 0.8547521912787037 -0.16911396207881044 3.7340163921767417 0.39252349374081125 -3.6284738894157686 -6.707598520424312 2.649204298622838 0.0 0.0 0.0 0.00045899364249634637 0.15177575085261336 -2.3107119015572164 51.70712546764761 8.427321777791176 27.449519432773727 42.11951257804186 -5.170874233204546 -9.84566324249294 0.0 0.0 0.0 -1.1507391453900218 0.04577775124902928 4.1668802667667 -47.89485702748248 8.650396391557054 -28.987663833896324 -55.58081996863038 -9.745954927219179 12.579784110444567 0.0 0.0 0.0
-221.95507248338498 265.86955443130336 1446.3058092357348 3.327832022475936 -3.211372358813268 0.7143299570222147 -0.10131773186367678 3.6635028170032347 0.3725438755610623 -3.677162059300502 -6.7438727676982495 2.6847712351307935 0.0 0.0 0.0 0.036627784581768776 0.14098856803881424 -2.1001633356610743 51.69883026052778 8.429518018140522 27.441965851812075 42.129395974059975 -5.176647962639626 -9.834232108338794 0.0 0.0 0.0 -1.0374913753672401 0.04157189818532236 4.404773332850809 -47.940147273531046 8.602542044601911 -29.09237433876183 -55.61237401604832 -9.74908949359868 12.585414547378262 0.0 0.0 0.0
-221.91624257353496 265.87189497120505 1446.1515044197633 3.2306192866862857 -3.1379189051306935 0.5901677532093592 -0.04101966238032413 3.6000002421190307 0.3546301571754854 -3.720706635555626 -6.777044786449002 2.7166133970918915 0.0 0.0 0.0 0.06917851597018308 0.13115974535584704 -1.9105322333557468 51.69118955288844 8.43182860633224 27.4344310360931 42.13754998779089 -5.181776700355592 -9.82386721198445 0.0 0.0 0.0 -0.9285380028420667 0.03704014332310732 4.625890724752164 -47.98788098300364 8.555118946887335 -29.19736740249755 -55.641085845154585 -9.751292648206356 12.591985071024503 0.0 0.0 0.0
